<svg width="494" height="205" viewBox="0 0 494 205" fill="none" xmlns="http://www.w3.org/2000/svg">
<g id="Frame 1" clip-path="url(#clip0)">
<g id="Group" filter="url(#filter0_d)">
<path id="Vector" d="M180.39 176C164.25 189.72 143.35 198 120.5 198C69.41 198 28 156.59 28 105.5C28 54.41 69.41 13 120.5 13C140.79 13 159.56 19.53 174.81 30.61" stroke="#FF5B00" stroke-width="5" stroke-miterlimit="10"/>
<path id="Vector_2" d="M153.08 144.02C144.16 151.79 132.51 156.5 119.75 156.5C91.72 156.5 69 133.78 69 105.75C69 77.72 91.72 55 119.75 55C131.08 55 141.55 58.72 150 65" stroke="#FF5B00" stroke-width="5" stroke-miterlimit="10" stroke-linecap="round"/>
<path id="Vector_3" d="M173.72 30C179.31 33.81 183 40.33 183 47.72C183 59.47 173.7 69 162.23 69C157.66 69 153.43 67.49 150 64.92" stroke="#FF5B00" stroke-width="5" stroke-miterlimit="10"/>
<path id="Vector_4" d="M153.12 144.07C156.82 140.91 161.63 139 166.89 139C178.55 139 188 148.38 188 159.95C188 166.4 185.07 172.16 180.45 176" stroke="#FF5B00" stroke-width="5" stroke-miterlimit="10"/>
</g>
<path id="Vector_5" d="M247.5 197.5H205.5V34.79C205.5 23.03 215.03 13.5 226.79 13.5C238.23 13.5 247.5 22.77 247.5 34.21V197.5Z" stroke="#FF5B00" stroke-width="5" stroke-miterlimit="10"/>
<g id="Group_2">
<path id="Vector_6" d="M433.63 165.05C425.11 164.99 418.16 171.85 418.1 180.37C418.04 188.89 424.9 195.84 433.42 195.9" stroke="#FF5B00" stroke-width="5" stroke-miterlimit="10" stroke-linecap="round"/>
<path id="Vector_7" d="M408.05 91.07L408.06 90.72" stroke="#FF5B00" stroke-width="5" stroke-miterlimit="10" stroke-linecap="round"/>
<path id="Vector_8" d="M407.73 139.02C407.83 124.74 419.48 113.25 433.76 113.35C448.04 113.45 459.53 125.1 459.43 139.38C459.33 153.66 447.68 165.15 433.4 165.05" stroke="#FF5B00" stroke-width="5" stroke-miterlimit="10" stroke-linecap="round"/>
<path id="Vector_9" d="M407.81 141.31C407.75 140.56 407.72 139.79 407.73 139.02" stroke="#FF5B00" stroke-width="5" stroke-miterlimit="10" stroke-linecap="round"/>
<path id="Vector_10" d="M408.33 90.61C435.74 76.72 469.22 87.69 483.11 115.1C497 142.51 486.03 175.99 458.62 189.88C450.81 193.84 442.17 195.89 433.42 195.88" stroke="#FF5B00" stroke-width="5" stroke-miterlimit="10" stroke-linecap="round"/>
<path id="Vector_11" d="M407.98 90.75L408.32 90.57" stroke="#FF5B00" stroke-width="5" stroke-miterlimit="10" stroke-linecap="round"/>
<path id="Vector_12" d="M407.9 141.31V197H377.33V25H407.9V89.91" stroke="#FF5B00" stroke-width="5" stroke-miterlimit="10" stroke-linecap="round"/>
</g>
<g id="Group_3">
<path id="Vector_13" d="M363.5 133V161.95C363.5 182.14 347.14 198.5 326.95 198.5H298.05C277.86 198.5 261.5 182.14 261.5 161.95V133" stroke="#FF5B00" stroke-width="5" stroke-miterlimit="10"/>
<path id="Vector_14" d="M334.5 132V156.09C334.5 164.6 327.6 171.5 319.09 171.5H306.91C298.4 171.5 291.5 164.6 291.5 156.09V132" stroke="#FF5B00" stroke-width="5" stroke-miterlimit="10"/>
<path id="Vector_15" d="M261.5 133.5V121.5C261.5 113.22 268.22 106.5 276.5 106.5C284.78 106.5 291.5 113.22 291.5 121.5V133.5" stroke="#FF5B00" stroke-width="5" stroke-miterlimit="10" stroke-linecap="square"/>
<path id="Vector_16" d="M335 133.5H334.5V121.14C334.5 113.08 340.99 106.54 349 106.54C357.01 106.54 363.5 113.08 363.5 121.14V134" stroke="#FF5B00" stroke-width="5" stroke-miterlimit="10"/>
</g>
<g id="Group_4">
<path id="Vector_17" d="M440.12 41.8353C440.04 41.9853 439.98 42.1453 439.92 42.3053L425.17 46.4053L422.51 43.8053L418.06 47.3053L422.32 52.3653C423.03 53.2053 424.2 53.4753 425.21 53.0353L441.14 46.0053C442.61 47.0253 444.63 46.6653 445.65 45.1953C446.67 43.7253 446.31 41.7053 444.84 40.6853C443.37 39.6653 441.35 40.0253 440.33 41.4953C440.25 41.5953 440.18 41.7153 440.12 41.8353Z" fill="#FFB8B8"/>
<path id="Vector_18" d="M424.65 46.6453L419.11 50.9553C418.5 51.4253 417.63 51.3153 417.16 50.7153C417.12 50.6653 417.08 50.6052 417.05 50.5452L413.61 44.4553C412.31 42.7653 412.63 40.3452 414.32 39.0452C416 37.7552 418.41 38.0552 419.72 39.7352L424.76 44.5452C425.31 45.0752 425.34 45.9553 424.81 46.5053C424.76 46.5553 424.71 46.5953 424.65 46.6453Z" fill="#FF5B00"/>
<path id="Vector_19" d="M441.54 39.7952L447.15 42.3252C447.64 42.5452 447.86 43.1252 447.64 43.6152L446.98 45.0952C447.14 45.1652 447.22 45.3652 447.14 45.5252L446.87 46.1152C446.8 46.2752 446.6 46.3552 446.44 46.2752L446.17 46.8652C446.33 46.9352 446.41 47.1352 446.33 47.2952L446.06 47.8852C445.99 48.0452 445.79 48.1252 445.63 48.0452L442.04 56.0252C441.82 56.5152 441.24 56.7352 440.75 56.5152L435.14 53.9852C434.65 53.7652 434.43 53.1852 434.65 52.6952L440.23 40.2853C440.47 39.7953 441.05 39.5752 441.54 39.7952Z" fill="#3F3D56"/>
<path id="Vector_20" d="M436.17 53.1952L440.67 55.2253C441.14 55.4353 441.69 55.2252 441.9 54.7552L443.98 50.1252L444.7 48.5252L446.58 44.3352C446.79 43.8652 446.58 43.3152 446.11 43.1052L444.69 42.4652L441.6 41.0752C441.13 40.8652 440.58 41.0752 440.37 41.5452L438.55 45.5952L436.48 50.2052L435.69 51.9652C435.5 52.4252 435.71 52.9752 436.17 53.1952Z" fill="#F2F2F2"/>
<path id="Vector_21" d="M426.76 110.525H430.55L432.35 95.9252H426.76V110.525Z" fill="#FFB8B8"/>
<path id="Vector_22" d="M425.8 109.285H433.25C435.87 109.285 438 111.415 438 114.035V114.195H425.8V109.285Z" fill="#2F2E41"/>
<path id="Vector_23" d="M436.64 109.595H440.43L442.23 95.0052H436.64V109.595Z" fill="#FFB8B8"/>
<path id="Vector_24" d="M435.68 108.365H443.13C445.75 108.365 447.88 110.495 447.88 113.115V113.265H435.68V108.365Z" fill="#2F2E41"/>
<path id="Vector_25" d="M409.79 76.2653C411.44 81.1653 416.01 84.4852 421.18 84.5452H421.37C423.32 84.6052 425.62 83.9752 427.87 83.0652C432.32 81.2752 436.58 78.4152 437.72 77.6252L435.8 96.0853L435.02 103.565C434.94 104.335 435.5 105.015 436.27 105.095C436.32 105.095 436.36 105.105 436.41 105.105H441.2C441.83 105.105 442.39 104.675 442.55 104.065L450.47 73.9152C451.3 70.7752 449.42 67.5652 446.28 66.7352C445.66 66.5752 445.02 66.5152 444.38 66.5552L427.94 67.6852L429.09 63.0953L414.41 62.1152L414.37 62.1453C414.02 62.4053 413.68 62.6653 413.35 62.9553C412.53 63.6453 411.81 64.4452 411.19 65.3152C408.95 68.5252 408.43 72.6153 409.79 76.2653Z" fill="#2F2E41"/>
<path id="Vector_26" d="M409.79 76.2653C411.44 81.1653 416.01 84.4852 421.18 84.5452C423.59 83.3252 425.92 81.9452 428.15 80.4152L427.87 83.0753L425.45 106.355C425.37 107.125 425.93 107.805 426.7 107.885C426.75 107.885 426.79 107.895 426.84 107.895H431.63C432.26 107.895 432.82 107.465 432.98 106.855L435.8 96.0953L440.89 76.7053C441.72 73.5653 439.84 70.3553 436.7 69.5253C436.08 69.3653 435.44 69.3053 434.8 69.3453L418.36 70.4753L419.51 65.8853L411.18 65.3353C408.95 68.5253 408.43 72.6153 409.79 76.2653Z" fill="#2F2E41"/>
<path id="Vector_27" d="M413.32 64.0253L413.21 64.0152L410.65 51.4252C410.63 51.3152 408.53 40.4552 414.95 34.7752L415.06 33.9952C415.17 33.2352 415.87 32.7052 416.63 32.8152C416.7 32.8252 416.77 32.8453 416.84 32.8653L422.89 34.7452C423.6 34.9652 424.01 35.7052 423.82 36.4252L423.23 38.6652C424.05 39.6252 433.64 51.1752 430.3 60.0652L428.8 65.9152L413.32 64.0253Z" fill="#FF5B00"/>
<path id="Vector_28" d="M438.42 54.2053C438.28 54.2953 438.14 54.3953 438.01 54.5153L423.22 50.5452L422.25 46.9553L416.65 47.6953L417.74 54.2153C417.92 55.2953 418.8 56.1352 419.89 56.2552L437.19 58.2952C437.94 59.9252 439.86 60.6353 441.49 59.8853C443.12 59.1353 443.83 57.2153 443.08 55.5853C442.33 53.9553 440.41 53.2452 438.78 53.9952C438.65 54.0652 438.53 54.1353 438.42 54.2053Z" fill="#FFB8B8"/>
<path id="Vector_29" d="M422.65 50.4852L415.69 51.3852C414.93 51.4852 414.23 50.9452 414.13 50.1852C414.12 50.1152 414.12 50.0452 414.12 49.9852L414.25 42.9952C413.99 40.8852 415.49 38.9552 417.61 38.6952C419.72 38.4352 421.64 39.9253 421.91 42.0352L423.81 48.7452C424.02 49.4852 423.59 50.2552 422.85 50.4552C422.79 50.4552 422.72 50.4752 422.65 50.4852Z" fill="#FF5B00"/>
<path id="Vector_30" d="M420.69 31.1653C424.876 31.1653 428.27 27.7716 428.27 23.5853C428.27 19.3989 424.876 16.0052 420.69 16.0052C416.504 16.0052 413.11 19.3989 413.11 23.5853C413.11 27.7716 416.504 31.1653 420.69 31.1653Z" fill="#FFB8B8"/>
<path id="Vector_31" d="M420.3 24.2153L419.35 22.4853C417.55 29.8153 420.73 35.8753 420.73 35.8753L408.4 30.1353L408.52 28.0953L407.3 29.4753L405.55 28.5053L405.32 27.1853L404 27.5153L408.83 18.7553C413.52 10.4153 420.33 13.5953 420.33 13.5953C431.17 13.0753 429.85 23.7753 429.85 23.7753L420.3 24.2153Z" fill="#2F2E41"/>
</g>
</g>
<defs>
<filter id="filter0_d" x="21.5" y="10.5" width="173" height="198" filterUnits="userSpaceOnUse" color-interpolation-filters="sRGB">
<feFlood flood-opacity="0" result="BackgroundImageFix"/>
<feColorMatrix in="SourceAlpha" type="matrix" values="0 0 0 0 0 0 0 0 0 0 0 0 0 0 0 0 0 0 127 0"/>
<feOffset dy="4"/>
<feGaussianBlur stdDeviation="2"/>
<feColorMatrix type="matrix" values="0 0 0 0 0 0 0 0 0 0 0 0 0 0 0 0 0 0 0.25 0"/>
<feBlend mode="normal" in2="BackgroundImageFix" result="effect1_dropShadow"/>
<feBlend mode="normal" in="SourceGraphic" in2="effect1_dropShadow" result="shape"/>
</filter>
<clipPath id="clip0">
<rect width="494" height="205" fill="white"/>
</clipPath>
</defs>
</svg>
